<svg  viewBox="0 0 553 371" fill="none" xmlns="http://www.w3.org/2000/svg">
<path d="M180 245.746C230.5 184.5 317.5 331 465 199.5C363 383 268.5 220 180 245.746Z" fill="#218DA6"/>
<path d="M188.5 259C269.5 234 336.5 349.5 434 274C334 405.5 278.5 254.5 188.5 259Z" fill="#218DA6"/>
<path fill-rule="evenodd" clip-rule="evenodd" d="M337.256 244.952C352.549 229.582 362 208.395 362 185C362 138.056 323.944 100 277 100C230.056 100 192 138.056 192 185C192 198.492 195.143 211.25 200.738 222.581C223.798 219.367 236.492 223.877 252.831 229.682C270.621 236.002 292.734 243.858 337.256 244.952Z" fill="#F2B705"/>
<path d="M194.323 217.032L143.014 219.068L189.266 198.717C189.266 198.717 189.895 204.002 191.062 208.228C192.229 212.455 194.323 217.032 194.323 217.032Z" fill="#F2A444"/>
<path d="M189.877 165.208L147.068 136.851L196.487 147.395C196.487 147.395 193.906 152.049 192.381 156.16C190.855 160.271 189.877 165.208 189.877 165.208Z" fill="#F2A444"/>
<path d="M216.47 118.362L193.415 72.4795L231.059 106.19C231.059 106.19 226.506 108.946 223.14 111.755C219.773 114.564 216.47 118.362 216.47 118.362Z" fill="#F2A444"/>
<path d="M270 95.9815L283.049 46.3183L288.993 96.4988C288.993 96.4988 283.755 95.5558 279.372 95.4364C274.989 95.3171 270 95.9815 270 95.9815Z" fill="#F2A444"/>
<path d="M334 116.879L377.982 90.3777L347.254 130.492C347.254 130.492 344.157 126.164 341.098 123.023C338.04 119.881 334 116.879 334 116.879Z" fill="#F2A444"/>
<path d="M364 156.105L415.343 155.344L368.6 174.54C368.6 174.54 368.102 169.241 367.041 164.987C365.979 160.733 364 156.105 364 156.105Z" fill="#F2A444"/>
<path d="M371.262 197.694L412.876 227.777L363.929 215.222C363.929 215.222 366.698 210.676 368.39 206.631C370.082 202.587 371.262 197.694 371.262 197.694Z" fill="#F2A444"/>
<path d="M356.108 136.084L383.187 130.275L360.823 145.77C360.823 145.77 359.904 142.899 358.816 140.664C357.728 138.429 356.108 136.084 356.108 136.084Z" fill="#F2A444"/>
<path d="M371 181.968L398.303 186.611L371.788 192.711C371.788 192.711 371.999 189.705 371.817 187.225C371.635 184.746 371 181.968 371 181.968Z" fill="#F2A444"/>
<path d="M312 100.008L330.03 78.9858L321.617 104.86C321.617 104.86 319.148 103.132 316.928 102.012C314.709 100.893 312 100.008 312 100.008Z" fill="#F2A444"/>
<path d="M246.347 95.9575L243.216 68.4402L256.448 92.213C256.448 92.213 253.501 92.8465 251.17 93.7106C248.839 94.5748 246.347 95.9575 246.347 95.9575Z" fill="#F2A444"/>
<path d="M196.456 138.787L177.646 118.46L202.382 129.791C202.382 129.791 200.382 132.046 199.014 134.122C197.647 136.198 196.456 138.787 196.456 138.787Z" fill="#F2A444"/>
<path d="M183.836 188.75L156.708 183.177L183.415 177.986C183.415 177.986 183.102 180.984 183.199 183.468C183.296 185.952 183.836 188.75 183.836 188.75Z" fill="#F2A444"/>
</svg>
